<svg width="21" height="23" viewBox="0 0 21 23" fill="none" xmlns="http://www.w3.org/2000/svg">
<path d="M10.5 0.684082C9.9307 0.684082 9.4687 1.0967 9.4687 1.60511V19.9791L1.96533 12.9434C1.57293 12.5754 0.920669 12.5602 0.507138 12.9116C0.0946376 13.2625 0.0786531 13.8451 0.471559 14.2135L9.04125 22.2489C9.43106 22.5971 9.94875 22.7887 10.5 22.7887C11.0506 22.7887 11.5688 22.5971 11.9757 22.2328L20.5278 14.2135C20.9207 13.8451 20.9042 13.2625 20.4923 12.9116C20.0803 12.5602 19.4275 12.575 19.0346 12.9434L11.5312 20.0085V1.60511C11.5312 1.0967 11.0692 0.684082 10.5 0.684082Z" fill="#313131"/>
</svg>
