<svg width="60" height="60" viewBox="0 0 60 60" fill="none" xmlns="http://www.w3.org/2000/svg">
<path d="M56.7551 9.12885C56.1943 8.1448 55.4256 7.29488 54.5027 6.63832C53.5798 5.98176 52.5248 5.53435 51.4113 5.32729L50.8127 2.85369C50.7873 2.74872 50.7415 2.6498 50.6778 2.56259C50.6141 2.47539 50.5338 2.40163 50.4415 2.34553C50.3492 2.28944 50.2467 2.25212 50.14 2.23571C50.0332 2.21931 49.9243 2.22415 49.8194 2.24994L45.2257 3.36229C45.0143 3.4136 44.8319 3.54674 44.7186 3.73247C44.6053 3.91819 44.5704 4.14129 44.6215 4.35276L45.0593 6.16072L14.5783 13.5417C14.3675 13.5934 14.1857 13.7266 14.0728 13.912C13.9599 14.0975 13.9251 14.3201 13.976 14.5312L14.2699 15.7448L8.73491 17.0854C8.52349 17.1367 8.3411 17.2699 8.2278 17.4556C8.1145 17.6413 8.07958 17.8644 8.13069 18.0759L8.56428 19.8665L2.85678 21.2479C2.75207 21.2733 2.65337 21.319 2.56634 21.3825C2.4793 21.446 2.40562 21.526 2.34951 21.618C2.2934 21.71 2.25596 21.8121 2.23933 21.9185C2.22269 22.025 2.22719 22.1337 2.25257 22.2384L3.30725 26.5931C3.35053 26.7719 3.45262 26.9309 3.59712 27.0447C3.74163 27.1586 3.92018 27.2205 4.10413 27.2207C4.16935 27.2205 4.23432 27.2126 4.29772 27.1973L10.0048 25.8159L10.4369 27.6009C10.4802 27.7797 10.5823 27.9387 10.7268 28.0525C10.8713 28.1664 11.0499 28.2283 11.2338 28.2285C11.2991 28.2285 11.3641 28.2207 11.4274 28.2051L16.9629 26.8654L17.2573 28.0795C17.3007 28.2581 17.4028 28.417 17.5473 28.5308C17.6918 28.6445 17.8703 28.7064 18.0541 28.7067C18.1194 28.7066 18.1844 28.6988 18.2477 28.6832L26.4462 26.6967C26.5447 27.1672 26.7359 27.6133 27.0087 28.0092L13.9488 54.5653C13.7824 54.9046 13.7051 55.2807 13.7242 55.6581C13.7432 56.0355 13.858 56.4019 14.0576 56.7228C14.2573 57.0436 14.5353 57.3084 14.8655 57.4922C15.1958 57.676 15.5673 57.7728 15.9452 57.7734C16.361 57.7715 16.768 57.654 17.1207 57.4339C17.4735 57.2139 17.7581 56.9 17.9426 56.5274L27.7765 36.5273V55.5468C27.7765 56.1373 28.0111 56.7037 28.4286 57.1212C28.8462 57.5388 29.4125 57.7734 30.003 57.7734C30.5936 57.7734 31.1599 57.5388 31.5774 57.1212C31.995 56.7037 32.2296 56.1373 32.2296 55.5468V36.5273L42.0635 56.5274C42.2482 56.9003 42.533 57.2144 42.8861 57.4344C43.2392 57.6545 43.6467 57.7719 44.0627 57.7734C44.4025 57.7747 44.7379 57.6964 45.0419 57.5446C45.3045 57.4161 45.5392 57.2371 45.7325 57.0178C45.9258 56.7984 46.074 56.5431 46.1685 56.2665C46.2631 55.9898 46.3021 55.6973 46.2834 55.4055C46.2647 55.1137 46.1887 54.8285 46.0596 54.5662L33.0002 28.0073C33.3007 27.572 33.5015 27.0757 33.5882 26.5539C33.6749 26.0321 33.6454 25.4976 33.5018 24.9885L48.7272 21.2967L49.166 23.107C49.2173 23.3184 49.3505 23.5008 49.5362 23.6141C49.7219 23.7274 49.945 23.7623 50.1565 23.7112L54.7502 22.5984C54.855 22.5731 54.9537 22.5274 55.0408 22.4639C55.1278 22.4004 55.2015 22.3204 55.2577 22.2284C55.3138 22.1364 55.3512 22.0343 55.3678 21.9278C55.3844 21.8213 55.3799 21.7126 55.3544 21.6079L54.7558 19.1357C56.2351 17.9857 57.2511 16.3418 57.6182 14.5044C57.9853 12.6671 57.6789 10.7589 56.7551 9.12885V9.12885ZM4.70882 25.4095L4.04038 22.6495L8.95007 21.4612L9.6185 24.2212L4.70882 25.4095ZM11.8385 26.4178L11.411 24.652C11.411 24.6454 11.411 24.6389 11.4082 24.6323C11.4054 24.6257 11.4035 24.6196 11.4016 24.6131L10.3558 20.2968C10.3558 20.2907 10.3558 20.2851 10.3558 20.2795C10.3558 20.2739 10.3516 20.2687 10.3502 20.2626L9.92038 18.4889L14.6585 17.3423L16.5804 25.2726L11.8385 26.4178ZM31.669 24.8709C31.9192 25.2517 32.0304 25.7071 31.9839 26.1603C31.9375 26.6135 31.7362 27.0369 31.414 27.359L31.4098 27.3642C31.225 27.5492 31.0056 27.696 30.764 27.7961C30.5225 27.8962 30.2636 27.9478 30.0021 27.9478C29.7406 27.9478 29.4817 27.8962 29.2402 27.7961C28.9986 27.696 28.7792 27.5492 28.5944 27.3642L28.5902 27.359C28.3932 27.1617 28.2398 26.9251 28.14 26.6647C28.0402 26.4043 27.9963 26.1258 28.011 25.8473C28.0258 25.5688 28.0989 25.2965 28.2257 25.0481C28.3524 24.7997 28.5299 24.5807 28.7467 24.4053C28.9636 24.2299 29.2148 24.102 29.4842 24.0299C29.7536 23.9579 30.0352 23.9432 30.3106 23.9869C30.586 24.0307 30.8492 24.1318 31.083 24.2837C31.3169 24.4357 31.5162 24.6351 31.668 24.869L31.669 24.8709ZM16.4698 55.8042C16.4187 55.9078 16.338 55.994 16.238 56.0519C16.138 56.1098 16.023 56.1367 15.9077 56.1294C15.7924 56.122 15.6818 56.0806 15.59 56.0105C15.4981 55.9404 15.4291 55.8446 15.3916 55.7353C15.3667 55.6628 15.3564 55.5861 15.3614 55.5097C15.3664 55.4332 15.3865 55.3585 15.4207 55.2899L27.7765 30.1593V32.8096L16.4698 55.8042ZM30.003 56.1323C29.8477 56.1322 29.6987 56.0704 29.5889 55.9605C29.479 55.8507 29.4172 55.7017 29.4171 55.5464V29.5382C29.8047 29.607 30.2014 29.607 30.589 29.5382V55.5468C30.5888 55.7022 30.5271 55.8511 30.4172 55.961C30.3074 56.0709 30.1584 56.1326 30.003 56.1328V56.1323ZM44.6144 55.7348C44.5893 55.8086 44.5496 55.8765 44.4977 55.9347C44.4459 55.9929 44.3829 56.0402 44.3126 56.0737C44.1731 56.1367 44.0148 56.1438 43.8702 56.0935C43.7257 56.0432 43.606 55.9393 43.5358 55.8032L32.2296 32.8096V30.1593L44.5858 55.2914C44.6197 55.3596 44.6397 55.4339 44.6446 55.51C44.6495 55.586 44.6393 55.6623 44.6144 55.7343V55.7348ZM30.003 22.3242C29.2078 22.3256 28.435 22.5876 27.803 23.0702C27.171 23.5528 26.7146 24.2293 26.5038 24.996L18.6565 26.8959L16.0568 16.1615V16.1578V16.1535L15.7638 14.9437L45.4465 7.75494L48.3401 19.702L32.6721 23.5012C32.3332 23.1306 31.9209 22.8346 31.4614 22.6319C31.0019 22.4293 30.5052 22.3245 30.003 22.3242V22.3242ZM50.5666 21.9234L46.8541 6.59526C46.8541 6.58682 46.8541 6.57838 46.8504 6.56994C46.8466 6.56151 46.8443 6.55447 46.8424 6.54651L46.4102 4.76526L49.4102 4.03869L53.5671 21.1987L50.5666 21.9234ZM51.8463 7.13151C52.8541 7.44961 53.7627 8.02255 54.4842 8.79485C55.2056 9.56714 55.7154 10.5126 55.9641 11.5398C56.2129 12.5669 56.1923 13.6408 55.9042 14.6577C55.6162 15.6745 55.0705 16.5997 54.3199 17.3437L51.8463 7.13151Z" fill="#313131"/>
<path d="M36.1103 11.2227L29.8098 12.7499C29.7024 12.7726 29.6006 12.8166 29.5104 12.8793C29.4203 12.942 29.3437 13.0222 29.2851 13.115C29.2266 13.2079 29.1872 13.3116 29.1695 13.42C29.1517 13.5283 29.1559 13.6391 29.1818 13.7458C29.2076 13.8525 29.2546 13.953 29.32 14.0412C29.3854 14.1294 29.4679 14.2035 29.5624 14.2593C29.657 14.315 29.7619 14.3512 29.8707 14.3657C29.9795 14.3802 30.0902 14.3727 30.196 14.3437L36.497 12.817C36.6042 12.7941 36.7057 12.7499 36.7956 12.6871C36.8855 12.6243 36.9618 12.5441 37.0202 12.4513C37.0785 12.3585 37.1177 12.2549 37.1353 12.1467C37.1529 12.0385 37.1487 11.9279 37.1229 11.8213C37.097 11.7148 37.0501 11.6145 36.9848 11.5264C36.9195 11.4383 36.8373 11.3642 36.7429 11.3084C36.6485 11.2527 36.5438 11.2164 36.4352 11.2018C36.3265 11.1871 36.2161 11.1944 36.1103 11.2232V11.2227Z" fill="#313131"/>
<path d="M42.2112 10.5891C42.1861 10.4842 42.1405 10.3853 42.0771 10.2981C42.0137 10.2108 41.9337 10.137 41.8416 10.0808C41.7496 10.0246 41.6474 9.98719 41.5408 9.97064C41.4342 9.95408 41.3254 9.95875 41.2207 9.98438L39.3457 10.4381C39.2383 10.4608 39.1365 10.5048 39.0463 10.5675C38.9562 10.6302 38.8796 10.7104 38.821 10.8032C38.7625 10.8961 38.7231 10.9998 38.7054 11.1081C38.6876 11.2165 38.6918 11.3273 38.7177 11.434C38.7435 11.5407 38.7905 11.6411 38.8559 11.7293C38.9213 11.8175 39.0038 11.8917 39.0983 11.9475C39.1929 12.0032 39.2977 12.0394 39.4066 12.0539C39.5154 12.0684 39.6261 12.0609 39.7319 12.0319L41.6046 11.5781C41.7094 11.5531 41.8083 11.5076 41.8955 11.4443C41.9827 11.3811 42.0566 11.3012 42.1129 11.2093C42.1693 11.1175 42.2069 11.0154 42.2238 10.909C42.2407 10.8025 42.2364 10.6938 42.2112 10.5891V10.5891Z" fill="#313131"/>
</svg>
