<svg width="30" height="30" viewBox="0 0 30 30" fill="none" xmlns="http://www.w3.org/2000/svg">
<g clip-path="url(#clip0)">
<path d="M29.0617 14.063H17.187C16.6695 14.063 16.2495 13.643 16.2495 13.1255C16.2495 12.608 16.6695 12.188 17.187 12.188H29.0617C29.5792 12.188 29.9992 12.608 29.9992 13.1255C29.9992 13.643 29.5792 14.063 29.0617 14.063Z" fill="#313131"/>
<path d="M24.3743 18.7503C24.1342 18.7503 23.8943 18.659 23.7117 18.4754C23.3455 18.109 23.3455 17.5153 23.7117 17.1491L27.7367 13.1243L23.7117 9.09936C23.3455 8.73316 23.3455 8.13946 23.7117 7.77326C24.0781 7.40684 24.6718 7.40684 25.038 7.77326L29.7254 12.4606C30.0916 12.8268 30.0916 13.4205 29.7254 13.7867L25.038 18.4741C24.8542 18.659 24.6143 18.7503 24.3743 18.7503Z" fill="#313131"/>
<path d="M9.99976 30C9.73221 30 9.47839 29.9624 9.22479 29.8837L1.70237 27.3775C0.678842 27.02 0 26.0663 0 25.0002V2.50091C0 1.12217 1.12126 0.000915527 2.5 0.000915527C2.76732 0.000915527 3.02115 0.038451 3.27497 0.117184L10.7972 2.62336C11.8209 2.98086 12.4995 3.93458 12.4995 5.00068V27.5C12.4995 28.8787 11.3785 30 9.99976 30ZM2.5 1.87586C2.15623 1.87586 1.87494 2.15714 1.87494 2.50091V25.0002C1.87494 25.2664 2.05369 25.5138 2.30866 25.6026L9.79584 28.0976C9.84962 28.115 9.91966 28.125 9.99976 28.125C10.3435 28.125 10.6246 27.8438 10.6246 27.5V5.00068C10.6246 4.7345 10.4458 4.48709 10.1909 4.39828L2.7037 1.90332C2.64991 1.88593 2.57988 1.87586 2.5 1.87586Z" fill="#313131"/>
<path d="M19.0618 10.0007C18.5443 10.0007 18.1243 9.5807 18.1243 9.06321V3.43838C18.1243 2.57713 17.4233 1.87586 16.562 1.87586H2.49997C1.98249 1.87586 1.5625 1.45587 1.5625 0.938386C1.5625 0.420901 1.98249 0.000915527 2.49997 0.000915527H16.562C18.4583 0.000915527 19.9993 1.54216 19.9993 3.43838V9.06321C19.9993 9.5807 19.5793 10.0007 19.0618 10.0007Z" fill="#313131"/>
<path d="M16.562 26.2501H11.562C11.0445 26.2501 10.6245 25.8301 10.6245 25.3126C10.6245 24.7951 11.0445 24.3751 11.562 24.3751H16.562C17.4232 24.3751 18.1243 23.6739 18.1243 22.8126V17.1878C18.1243 16.6703 18.5443 16.2503 19.0617 16.2503C19.5792 16.2503 19.9992 16.6703 19.9992 17.1878V22.8126C19.9992 24.7088 18.4582 26.2501 16.562 26.2501Z" fill="#313131"/>
</g>
<defs>
<clipPath id="clip0">
<rect width="30" height="30" fill="white"/>
</clipPath>
</defs>
</svg>
