<svg width="15" height="15" viewBox="0 0 15 15" fill="none" xmlns="http://www.w3.org/2000/svg">
<g clip-path="url(#clip0)">
<path d="M14.3557 6.37219L12.3263 5.10917C10.8976 4.21998 9.22872 3.75 7.5 3.75C5.77128 3.75 4.10235 4.21998 2.67372 5.10917L0.644326 6.37219C0.240879 6.62329 0 7.0449 0 7.5C0 7.9551 0.240879 8.37671 0.644326 8.62781L2.67372 9.89083C4.10235 10.78 5.77128 11.25 7.5 11.25C9.22872 11.25 10.8976 10.78 12.3263 9.89083L14.3557 8.62781C14.7591 8.37671 15 7.9551 15 7.5C15 7.0449 14.7591 6.62329 14.3557 6.37219V6.37219ZM7.5 9.84375C6.20766 9.84375 5.15625 8.79234 5.15625 7.5C5.15625 6.20766 6.20766 5.15625 7.5 5.15625C8.79234 5.15625 9.84375 6.20766 9.84375 7.5C9.84375 8.79234 8.79234 9.84375 7.5 9.84375ZM1.13971 7.83188C1.01121 7.75189 0.9375 7.63093 0.9375 7.5C0.9375 7.36907 1.01121 7.24811 1.13968 7.16812L3.16907 5.90511C3.87187 5.46771 4.6403 5.14925 5.43861 4.94918C4.69506 5.5512 4.21875 6.47095 4.21875 7.5C4.21875 8.52905 4.69506 9.4488 5.43861 10.0508C4.6403 9.85078 3.87187 9.53232 3.16907 9.09492L1.13971 7.83188ZM13.8603 7.83188L11.8309 9.09489C11.1281 9.53229 10.3597 9.85075 9.56139 10.0508C10.3049 9.4488 10.7812 8.52905 10.7812 7.5C10.7812 6.47095 10.3049 5.5512 9.56139 4.94915C10.3597 5.14922 11.1281 5.46768 11.8309 5.90508L13.8603 7.1681C13.9888 7.24808 14.0625 7.36907 14.0625 7.5C14.0625 7.63093 13.9888 7.75192 13.8603 7.83188Z" fill="#E0E0E0"/>
<path d="M7.5 8.4375C8.01777 8.4375 8.4375 8.01777 8.4375 7.5C8.4375 6.98223 8.01777 6.5625 7.5 6.5625C6.98223 6.5625 6.5625 6.98223 6.5625 7.5C6.5625 8.01777 6.98223 8.4375 7.5 8.4375Z" fill="#E0E0E0"/>
</g>
<defs>
<clipPath id="clip0">
<rect width="15" height="15" fill="white"/>
</clipPath>
</defs>
</svg>
